<?xml version="1.0" encoding="UTF-8" standalone="no"?>
<!DOCTYPE svg PUBLIC "-//W3C//DTD SVG 1.1//EN" "http://www.w3.org/Graphics/SVG/1.1/DTD/svg11.dtd">
<svg width="100%" height="100%" viewBox="0 0 40 28" version="1.1" xmlns="http://www.w3.org/2000/svg" xmlns:xlink="http://www.w3.org/1999/xlink" xml:space="preserve" xmlns:serif="http://www.serif.com/" style="fill-rule:evenodd;clip-rule:evenodd;stroke-linejoin:round;stroke-miterlimit:2;">
    <g transform="matrix(0.329256,0,0,0.329256,-180.945,-861.71)">
        <path d="M668.506,2630.41C667.109,2625.19 662.992,2621.07 657.765,2619.68C648.291,2617.14 610.302,2617.14 610.302,2617.14C610.302,2617.14 572.313,2617.14 562.839,2619.68C557.612,2621.07 553.495,2625.19 552.098,2630.41C549.56,2639.89 549.56,2659.66 549.56,2659.66C549.56,2659.66 549.56,2679.42 552.098,2688.9C553.495,2694.12 557.612,2698.24 562.839,2699.64C572.313,2702.18 610.302,2702.18 610.302,2702.18C610.302,2702.18 648.291,2702.18 657.765,2699.64C662.992,2698.24 667.109,2694.12 668.506,2688.9C671.045,2679.42 671.045,2659.66 671.045,2659.66C671.045,2659.66 671.045,2639.89 668.506,2630.41ZM598.154,2677.88L629.716,2659.66L598.154,2641.43L598.154,2677.88Z" style="fill:white;"/>
    </g>
</svg>
